<svg width="63" height="63" viewBox="0 0 63 63" fill="none" xmlns="http://www.w3.org/2000/svg">
<path d="M31.0065 0C13.9094 0 0 13.9094 0 31.0065C0 48.1035 13.9094 62.0129 31.0065 62.0129C48.1035 62.0129 62.0129 48.1035 62.0129 31.0065C62.0129 13.9094 48.1035 0 31.0065 0Z" fill="white"/>
<path d="M48.0073 9.76746C44.2182 19.6111 34.158 18.336 27.065 18.5806L25.3409 25.2927C34.0899 18.1596 45.6657 25.2326 44.4267 35.9984C43.5927 43.2479 38.4243 47.9912 32.9551 49.3545C26.9968 50.8421 20.397 48.6167 17.4379 42.5462C17.1251 41.9046 16.5758 40.6215 16.3673 39.9319L22.6504 38.32C22.7587 38.6809 22.9471 39.0297 23.1476 39.3505C27.3537 46.1348 35.8741 42.7426 36.8365 35.7057C37.8148 28.5486 27.7707 24.7354 23.1917 33.0995L17.6223 30.7258L17.5261 30.6857L19.5991 22.3617C19.9279 20.8822 20.9182 17.0129 21.0305 16.64C21.2069 16.0626 21.247 15.8701 21.4475 15.3449C25.0161 5.96232 32.077 5.01605 38.3481 5.01605C38.6007 5.01605 38.8453 5.01605 39.0939 5.02407C36.5357 4.23016 33.8172 3.80113 30.9984 3.80113C15.9784 3.79712 3.79712 15.9784 3.79712 31.0065C3.79712 46.0345 15.9784 58.2158 31.0065 58.2158C46.0345 58.2158 58.2158 46.0345 58.2158 31.0065C58.2158 22.4138 54.2262 14.7554 48.0073 9.76746Z" fill="#878787"/>
<path d="M45.5293 7.92703C44.4748 11.2029 42.6344 13.2638 39.7916 14.3745C36.8325 15.5293 33.2278 15.5574 29.7434 15.5854C27.8709 15.6015 26.0786 15.6135 24.4347 15.81C27.3938 8.66881 32.6985 7.96713 38.3561 7.96713C39.142 7.96713 39.9319 7.98317 40.6977 7.9992C41.4596 8.01524 42.1813 8.02727 42.899 8.02727C43.9295 8.02727 44.7755 7.99519 45.5293 7.92703Z" fill="#878787"/>
<path d="M31.1348 0.0280704C14.0538 0.0280704 0.156403 13.9254 0.156403 31.0065C0.156403 48.0875 14.0538 61.9848 31.1348 61.9848C48.2158 61.9848 62.1132 48.0875 62.1132 31.0065C62.1132 13.9254 48.2158 0.0280704 31.1348 0.0280704Z" fill="white"/>
<path d="M48.1196 9.7875C44.3345 19.6231 34.2823 18.3481 27.1973 18.5967L25.4772 25.3048C34.2182 18.1797 45.7819 25.2446 44.547 35.9984C43.713 43.2398 38.5486 47.9792 33.0875 49.3425C27.1332 50.826 20.5413 48.6047 17.5822 42.5422C17.2695 41.9006 16.7242 40.6175 16.5157 39.9319L22.7947 38.32C22.903 38.6809 23.0915 39.0297 23.2919 39.3505C27.494 46.1268 36.0105 42.7386 36.9688 35.7097C37.9471 28.5566 27.911 24.7474 23.336 33.1075L17.7707 30.7338L17.6745 30.6937L19.7474 22.3777C20.0762 20.8982 21.0626 17.0329 21.1789 16.66C21.3553 16.0826 21.3954 15.8902 21.5919 15.3649C25.1604 5.99038 32.2094 5.04411 38.4764 5.04411C38.725 5.04411 38.9736 5.04411 39.2222 5.05213C36.6681 4.25822 33.9495 3.82919 31.1348 3.82919C16.1227 3.82117 3.94949 15.9904 3.94949 31.0065C3.94949 46.0225 16.1227 58.1917 31.1348 58.1917C46.1468 58.1917 58.32 46.0185 58.32 31.0065C58.32 22.4218 54.3345 14.7715 48.1196 9.7875Z" fill="#E52322"/>
<path d="M45.6456 7.9511C44.5911 11.227 42.7547 13.2839 39.9119 14.3906C36.9527 15.5453 33.3561 15.5734 29.8758 15.6015C28.0033 15.6175 26.211 15.6335 24.571 15.826C27.5261 8.69288 32.8268 7.98718 38.4804 7.98718C39.2663 7.98718 40.0562 8.00322 40.818 8.01926C41.5799 8.0353 42.3016 8.04733 43.0193 8.04733C44.0498 8.04733 44.8958 8.01525 45.6456 7.94709" fill="#00923A"/>
</svg>
